<mxfile host="app.diagrams.net" modified="2023-12-08T22:11:26.400Z" agent="Mozilla/5.0 (X11; Linux x86_64) AppleWebKit/537.36 (KHTML, like Gecko) Chrome/119.0.0.0 Safari/537.36" etag="gp8FzOXkqyMQ2CxLKtnJ" version="22.1.7" type="device">
  <diagram name="Page-1" id="kv0YzqQFgcbpqb5Ba2SE">
    <mxGraphModel dx="3088" dy="798" grid="1" gridSize="10" guides="1" tooltips="1" connect="1" arrows="1" fold="1" page="1" pageScale="1" pageWidth="827" pageHeight="1169" math="0" shadow="0">
      <root>
        <mxCell id="0" />
        <mxCell id="1" parent="0" />
        <mxCell id="jsjSeAwf6KXP1PDTc1Yf-1" value="" style="rounded=0;whiteSpace=wrap;html=1;dashed=1;dashPattern=8 8;strokeColor=#6666FF;" vertex="1" parent="1">
          <mxGeometry x="-470" y="300" width="510" height="380" as="geometry" />
        </mxCell>
        <mxCell id="jsjSeAwf6KXP1PDTc1Yf-2" value="" style="shape=image;imageAspect=0;aspect=fixed;verticalLabelPosition=bottom;verticalAlign=top;image=https://seeklogo.com/images/G/google-looker-logo-B27BD25E4E-seeklogo.com.png;" vertex="1" parent="1">
          <mxGeometry x="610" y="365" width="137" height="219.79" as="geometry" />
        </mxCell>
        <mxCell id="jsjSeAwf6KXP1PDTc1Yf-3" value="" style="shape=image;imageAspect=0;aspect=fixed;verticalLabelPosition=bottom;verticalAlign=top;image=https://seeklogo.com/images/G/google-big-query-logo-AC63E7C329-seeklogo.com.png;" vertex="1" parent="1">
          <mxGeometry x="170" y="448" width="300" height="103" as="geometry" />
        </mxCell>
        <mxCell id="jsjSeAwf6KXP1PDTc1Yf-4" value="" style="shape=image;imageAspect=0;aspect=fixed;verticalLabelPosition=bottom;verticalAlign=top;image=https://mintlify.s3-us-west-1.amazonaws.com/mage/logo/light.svg;" vertex="1" parent="1">
          <mxGeometry x="-413" y="350" width="369.27" height="98" as="geometry" />
        </mxCell>
        <mxCell id="jsjSeAwf6KXP1PDTc1Yf-5" value="" style="shape=image;imageAspect=0;aspect=fixed;verticalLabelPosition=bottom;verticalAlign=top;image=https://static-00.iconduck.com/assets.00/compute-engine-icon-2048x2048-gv5pssnf.png;" vertex="1" parent="1">
          <mxGeometry x="-413" y="490" width="140" height="140" as="geometry" />
        </mxCell>
        <mxCell id="jsjSeAwf6KXP1PDTc1Yf-6" value="&lt;font style=&quot;font-size: 30px;&quot;&gt;Mage VM&lt;/font&gt;" style="text;html=1;align=center;verticalAlign=middle;resizable=0;points=[];autosize=1;strokeColor=none;fillColor=none;" vertex="1" parent="1">
          <mxGeometry x="-265" y="508" width="150" height="50" as="geometry" />
        </mxCell>
        <mxCell id="jsjSeAwf6KXP1PDTc1Yf-7" value="&lt;font color=&quot;#67ab9f&quot; style=&quot;font-size: 30px;&quot;&gt;Compute Engine&lt;/font&gt;" style="text;html=1;align=center;verticalAlign=middle;resizable=0;points=[];autosize=1;strokeColor=none;fillColor=none;" vertex="1" parent="1">
          <mxGeometry x="-270" y="558" width="250" height="50" as="geometry" />
        </mxCell>
        <mxCell id="jsjSeAwf6KXP1PDTc1Yf-8" value="" style="endArrow=classic;html=1;rounded=0;fillColor=#1ba1e2;strokeColor=#006EAF;" edge="1" parent="1">
          <mxGeometry width="50" height="50" relative="1" as="geometry">
            <mxPoint x="480" y="498" as="sourcePoint" />
            <mxPoint x="600" y="498" as="targetPoint" />
          </mxGeometry>
        </mxCell>
        <mxCell id="jsjSeAwf6KXP1PDTc1Yf-9" value="&lt;font color=&quot;#4d4d4d&quot; style=&quot;font-size: 30px;&quot;&gt;&lt;b&gt;Looker&lt;/b&gt;&lt;/font&gt;" style="text;html=1;align=center;verticalAlign=middle;resizable=0;points=[];autosize=1;strokeColor=none;fillColor=none;" vertex="1" parent="1">
          <mxGeometry x="627" y="600" width="120" height="50" as="geometry" />
        </mxCell>
        <mxCell id="jsjSeAwf6KXP1PDTc1Yf-10" value="&lt;font style=&quot;font-size: 30px;&quot;&gt;ETL&lt;/font&gt;" style="text;html=1;align=center;verticalAlign=middle;resizable=0;points=[];autosize=1;strokeColor=none;fillColor=none;" vertex="1" parent="1">
          <mxGeometry x="-475" y="300" width="80" height="50" as="geometry" />
        </mxCell>
        <mxCell id="jsjSeAwf6KXP1PDTc1Yf-11" value="" style="endArrow=classic;html=1;rounded=0;fillColor=#1ba1e2;strokeColor=#006EAF;" edge="1" parent="1">
          <mxGeometry width="50" height="50" relative="1" as="geometry">
            <mxPoint x="40" y="500" as="sourcePoint" />
            <mxPoint x="160" y="500" as="targetPoint" />
          </mxGeometry>
        </mxCell>
        <mxCell id="jsjSeAwf6KXP1PDTc1Yf-12" value="" style="shape=image;imageAspect=0;aspect=fixed;verticalLabelPosition=bottom;verticalAlign=top;image=https://support.blueconic.com/hc/article_attachments/5611537917723;" vertex="1" parent="1">
          <mxGeometry x="-1010" y="409" width="212" height="212" as="geometry" />
        </mxCell>
        <mxCell id="jsjSeAwf6KXP1PDTc1Yf-13" value="&lt;span style=&quot;color: rgb(103, 171, 159); font-family: Helvetica; font-size: 30px; font-style: normal; font-variant-ligatures: normal; font-variant-caps: normal; font-weight: 400; letter-spacing: normal; orphans: 2; text-align: center; text-indent: 0px; text-transform: none; widows: 2; word-spacing: 0px; -webkit-text-stroke-width: 0px; background-color: rgb(251, 251, 251); text-decoration-thickness: initial; text-decoration-style: initial; text-decoration-color: initial; float: none; display: inline !important;&quot;&gt;Cloud Storage&lt;/span&gt;" style="text;whiteSpace=wrap;html=1;" vertex="1" parent="1">
          <mxGeometry x="-790" y="498" width="260" height="70" as="geometry" />
        </mxCell>
        <mxCell id="jsjSeAwf6KXP1PDTc1Yf-14" value="&lt;span style=&quot;color: rgb(0, 0, 0); font-family: Helvetica; font-size: 30px; font-style: normal; font-variant-ligatures: normal; font-variant-caps: normal; font-weight: 400; letter-spacing: normal; orphans: 2; text-align: center; text-indent: 0px; text-transform: none; widows: 2; word-spacing: 0px; -webkit-text-stroke-width: 0px; background-color: rgb(251, 251, 251); text-decoration-thickness: initial; text-decoration-style: initial; text-decoration-color: initial; float: none; display: inline !important;&quot;&gt;Raw Data&lt;/span&gt;" style="text;whiteSpace=wrap;html=1;" vertex="1" parent="1">
          <mxGeometry x="-780" y="460" width="160" height="60" as="geometry" />
        </mxCell>
        <mxCell id="jsjSeAwf6KXP1PDTc1Yf-15" value="" style="endArrow=classic;html=1;rounded=0;entryX=0;entryY=0.5;entryDx=0;entryDy=0;fillColor=#1ba1e2;strokeColor=#006EAF;" edge="1" parent="1" target="jsjSeAwf6KXP1PDTc1Yf-1">
          <mxGeometry width="50" height="50" relative="1" as="geometry">
            <mxPoint x="-600" y="490" as="sourcePoint" />
            <mxPoint x="-480" y="490" as="targetPoint" />
          </mxGeometry>
        </mxCell>
      </root>
    </mxGraphModel>
  </diagram>
</mxfile>
